<mxfile host="Electron" modified="2023-04-28T09:26:19.018Z" agent="Mozilla/5.0 (X11; Linux x86_64) AppleWebKit/537.36 (KHTML, like Gecko) draw.io/21.2.1 Chrome/112.0.5615.87 Electron/24.1.2 Safari/537.36" etag="XyGu6rIxVgnlENX7KuCD" version="21.2.1" type="device">
  <diagram id="R2lEEEUBdFMjLlhIrx00" name="Page-1">
    <mxGraphModel dx="1050" dy="635" grid="1" gridSize="10" guides="1" tooltips="1" connect="1" arrows="1" fold="1" page="1" pageScale="1" pageWidth="200" pageHeight="100" background="#424242" math="0" shadow="1" extFonts="Permanent Marker^https://fonts.googleapis.com/css?family=Permanent+Marker">
      <root>
        <mxCell id="0" />
        <mxCell id="1" parent="0" />
        <mxCell id="CBCMD9t05b2a7RlSfvx8-5" value="Details" style="rounded=0;whiteSpace=wrap;html=1;hachureGap=4;fillColor=#FFE599;strokeColor=#9AC7BF;fontColor=#575757;strokeWidth=3;fontSize=21;fontStyle=1" parent="1" vertex="1">
          <mxGeometry x="150" y="310" width="160" height="50" as="geometry" />
        </mxCell>
        <mxCell id="CBCMD9t05b2a7RlSfvx8-10" style="edgeStyle=orthogonalEdgeStyle;rounded=0;orthogonalLoop=1;jettySize=auto;html=1;entryX=0;entryY=0.5;entryDx=0;entryDy=0;endArrow=ERoneToMany;startSize=14;endSize=14;sourcePerimeterSpacing=8;targetPerimeterSpacing=8;endFill=0;labelBackgroundColor=#F4F1DE;strokeColor=#1491C7;fontColor=#393C56;startArrow=ERone;startFill=0;strokeWidth=3;exitX=0.5;exitY=1;exitDx=0;exitDy=0;fillColor=#b1ddf0;" parent="1" source="CBCMD9t05b2a7RlSfvx8-6" target="CBCMD9t05b2a7RlSfvx8-22" edge="1">
          <mxGeometry relative="1" as="geometry" />
        </mxCell>
        <mxCell id="CBCMD9t05b2a7RlSfvx8-6" value="Entity" style="rounded=0;whiteSpace=wrap;html=1;hachureGap=4;fillColor=#b1ddf0;strokeColor=#10739e;strokeWidth=3;fontColor=#575757;fontSize=21;fontStyle=1" parent="1" vertex="1">
          <mxGeometry x="337" y="30" width="160" height="50" as="geometry" />
        </mxCell>
        <mxCell id="CBCMD9t05b2a7RlSfvx8-11" value="Entity" style="rounded=0;whiteSpace=wrap;html=1;hachureGap=4;fillColor=#FFE599;strokeColor=#9AC7BF;strokeWidth=3;fontColor=#575757;fontSize=21;fontStyle=1" parent="1" vertex="1">
          <mxGeometry x="530" y="310" width="160" height="50" as="geometry" />
        </mxCell>
        <mxCell id="CBCMD9t05b2a7RlSfvx8-12" style="edgeStyle=orthogonalEdgeStyle;rounded=0;orthogonalLoop=1;jettySize=auto;html=1;entryX=0.5;entryY=0;entryDx=0;entryDy=0;endArrow=ERzeroToMany;startSize=14;endSize=14;sourcePerimeterSpacing=8;targetPerimeterSpacing=8;endFill=0;labelBackgroundColor=#F4F1DE;strokeColor=#1491C7;fontColor=#393C56;startArrow=ERzeroToOne;startFill=0;strokeWidth=3;elbow=vertical;exitX=0.5;exitY=1;exitDx=0;exitDy=0;fillColor=#b1ddf0;" parent="1" source="CBCMD9t05b2a7RlSfvx8-22" target="CBCMD9t05b2a7RlSfvx8-5" edge="1">
          <mxGeometry relative="1" as="geometry">
            <mxPoint x="581" y="160" as="sourcePoint" />
            <mxPoint x="441" y="230" as="targetPoint" />
          </mxGeometry>
        </mxCell>
        <mxCell id="CBCMD9t05b2a7RlSfvx8-22" value="" style="ellipse;whiteSpace=wrap;html=1;rounded=1;hachureGap=4;strokeColor=#9AC7BF;strokeWidth=3;fontSize=21;fontColor=#575757;fillColor=#D5E8D4;direction=south;" parent="1" vertex="1">
          <mxGeometry x="392" y="150" width="50" height="50" as="geometry" />
        </mxCell>
        <mxCell id="CBCMD9t05b2a7RlSfvx8-25" style="edgeStyle=orthogonalEdgeStyle;rounded=0;orthogonalLoop=1;jettySize=auto;html=1;entryX=0.5;entryY=0;entryDx=0;entryDy=0;endArrow=ERzeroToMany;startSize=14;endSize=14;sourcePerimeterSpacing=8;targetPerimeterSpacing=8;endFill=0;labelBackgroundColor=#F4F1DE;strokeColor=#1491C7;fontColor=#393C56;startArrow=ERzeroToOne;startFill=0;strokeWidth=3;elbow=vertical;exitX=0.5;exitY=0;exitDx=0;exitDy=0;fillColor=#b1ddf0;" parent="1" source="CBCMD9t05b2a7RlSfvx8-22" target="CBCMD9t05b2a7RlSfvx8-11" edge="1">
          <mxGeometry relative="1" as="geometry">
            <mxPoint x="391" y="230" as="sourcePoint" />
            <mxPoint x="281" y="320" as="targetPoint" />
          </mxGeometry>
        </mxCell>
        <mxCell id="CBCMD9t05b2a7RlSfvx8-26" value="Entity" style="rounded=0;whiteSpace=wrap;html=1;hachureGap=4;fillColor=#FFE599;strokeColor=#4D4D4D;strokeWidth=3;fontColor=#575757;fontSize=21;fontStyle=1" parent="1" vertex="1">
          <mxGeometry x="338" y="310" width="160" height="50" as="geometry" />
        </mxCell>
        <mxCell id="CBCMD9t05b2a7RlSfvx8-27" style="edgeStyle=orthogonalEdgeStyle;rounded=0;orthogonalLoop=1;jettySize=auto;html=1;entryX=0.5;entryY=0;entryDx=0;entryDy=0;endArrow=ERzeroToMany;startSize=14;endSize=14;sourcePerimeterSpacing=8;targetPerimeterSpacing=8;endFill=0;labelBackgroundColor=#F4F1DE;strokeColor=#1491C7;fontColor=#393C56;startArrow=ERzeroToOne;startFill=0;strokeWidth=3;elbow=vertical;exitX=1;exitY=0.5;exitDx=0;exitDy=0;fillColor=#b1ddf0;" parent="1" source="CBCMD9t05b2a7RlSfvx8-22" target="CBCMD9t05b2a7RlSfvx8-26" edge="1">
          <mxGeometry relative="1" as="geometry">
            <mxPoint x="451" y="200" as="sourcePoint" />
            <mxPoint x="621" y="300" as="targetPoint" />
          </mxGeometry>
        </mxCell>
      </root>
    </mxGraphModel>
  </diagram>
</mxfile>
